<!DOCTYPE svg PUBLIC "-//W3C//DTD SVG 20010904//EN" "http://www.w3.org/TR/2001/REC-SVG-20010904/DTD/svg10.dtd">
<svg version="1.0" xmlns="http://www.w3.org/2000/svg" width="327px" height="65px" viewBox="0 0 3270 650" preserveAspectRatio="xMidYMid meet">
<g id="layer101" fill="#8a8a8a" stroke="none">
 <path d="M0 325 l0 -325 1635 0 1635 0 0 325 0 325 -1635 0 -1635 0 0 -325z"/>
 </g>
<g id="layer102" fill="#fefefe" stroke="none">
 <path d="M0 325 l0 -325 1635 0 1635 0 0 325 0 325 -1635 0 -1635 0 0 -325z m541 178 l99 -58 0 -121 0 -122 -101 -57 c-74 -42 -105 -55 -118 -49 -9 5 -56 31 -104 58 l-87 50 0 120 0 121 98 57 c53 31 101 57 106 57 5 1 53 -25 107 -56z m329 -178 c0 -150 -4 -235 -10 -235 -6 0 -10 85 -10 235 0 150 4 235 10 235 6 0 10 -85 10 -235z m2078 138 c20 -15 28 -30 30 -60 4 -51 -20 -72 -116 -104 -37 -11 -77 -28 -89 -35 -29 -18 -29 -50 -1 -65 28 -15 109 -5 148 18 16 9 32 14 36 10 29 -29 -78 -72 -162 -65 -71 6 -108 33 -112 81 -4 45 18 68 84 91 131 46 139 51 142 78 2 19 -3 30 -19 38 -29 16 -115 8 -159 -13 -35 -18 -65 -8 -43 14 42 42 210 50 261 12z m-1588 2 c0 -12 -17 -15 -95 -15 l-95 0 0 -140 0 -140 -35 0 -35 0 0 155 0 155 130 0 c109 0 130 -2 130 -15z m370 0 c0 -12 -18 -15 -100 -15 l-100 0 0 -140 0 -140 -30 0 -30 0 0 155 0 155 130 0 c109 0 130 -2 130 -15z m154 -25 l16 -41 87 3 86 3 12 35 c10 29 17 36 43 38 18 2 32 -1 32 -7 0 -5 -28 -77 -61 -160 l-62 -151 -52 0 -53 0 -61 149 c-33 83 -61 155 -61 160 0 6 13 11 29 11 24 0 31 -6 45 -40z m653 14 c16 -12 29 -33 31 -48 4 -33 -22 -76 -45 -76 -14 0 -13 -4 6 -24 31 -33 26 -82 -12 -110 -24 -18 -45 -22 -143 -24 l-114 -4 0 157 0 157 124 -4 c108 -3 128 -6 153 -24z"/>
 <path d="M405 526 c-18 -13 -18 -14 3 -25 28 -15 47 -14 61 3 10 12 8 17 -8 25 -26 14 -33 14 -56 -3z"/>
 <path d="M335 486 c-11 -7 -33 -21 -49 -31 l-29 -18 26 -13 c24 -13 30 -12 78 18 48 29 50 32 33 45 -22 16 -33 16 -59 -1z"/>
 <path d="M475 486 c-17 -13 -15 -16 36 -45 62 -36 58 -35 83 -16 23 17 25 14 -35 49 -53 30 -58 31 -84 12z"/>
 <path d="M376 429 l-49 -31 54 -30 53 -31 53 28 c29 15 53 31 53 35 0 8 -93 60 -106 60 -5 0 -31 -14 -58 -31z"/>
 <path d="M250 325 l0 -95 25 12 c23 10 25 16 25 83 0 67 -2 73 -25 83 l-25 12 0 -95z"/>
 <path d="M592 404 c-19 -13 -22 -24 -22 -79 0 -55 3 -66 22 -79 12 -9 26 -16 30 -16 5 0 8 43 8 95 0 52 -3 95 -8 95 -4 0 -18 -7 -30 -16z"/>
 <path d="M320 325 l0 -57 40 23 c22 13 41 28 42 32 2 5 -16 20 -39 34 l-43 25 0 -57z"/>
 <path d="M507 356 c-20 -12 -40 -25 -43 -28 -5 -5 78 -58 90 -58 3 0 6 25 6 55 0 30 -3 55 -7 55 -5 0 -25 -11 -46 -24z"/>
 <path d="M378 282 c-26 -15 -48 -29 -48 -32 0 -3 24 -18 54 -34 l53 -29 52 28 c28 16 51 31 51 35 0 8 -94 60 -106 59 -5 0 -30 -12 -56 -27z"/>
 <path d="M287 229 c-9 -6 -17 -14 -17 -19 0 -8 152 -100 166 -100 10 0 174 94 174 100 0 3 -9 11 -20 18 -18 11 -29 8 -87 -24 l-66 -38 -66 36 c-50 28 -70 34 -84 27z"/>
 <path d="M1924 353 c27 -72 60 -153 62 -151 3 4 64 158 64 163 0 3 -30 5 -66 5 -59 0 -65 -2 -60 -17z"/>
 <path d="M2330 395 l0 -55 63 0 c71 0 107 18 107 54 0 40 -30 56 -103 56 l-67 0 0 -55z"/>
 <path d="M2330 255 l0 -55 56 0 c74 0 94 12 94 55 0 43 -20 55 -94 55 l-56 0 0 -55z"/>
 </g>

</svg>